<?xml version="1.0" encoding="UTF-8"?>
<svg id="Layer_1" data-name="Layer 1" xmlns="http://www.w3.org/2000/svg" viewBox="0 0 757.32 175.77" fill="#ffffff">
  <path d="M149.02,174.96c-.82,1.77-2.56.29-1.4-.92l7.84-.27c1.63-.06,3.96-2.17,5.62.77l-12.06.43Z"/>
  <path d="M5.79,82.12c.57,1.81-1.25,2.2-1.87.97-1.68-1.7,1.1-3.44,1.87-.97Z"/>
  <path d="M725.76,4.1c.9.44.32,1.25-.27,1.48s-1.22.31-2.02-1.09c.24-.41,1.02-1.01,2.29-.38Z"/>
  <g>
    <path d="M66.43,120.41c-6.15-.13-11.64-1.91-15-1.32s-6.64-1.59-10.26-1.71l-14.79-.49c-3.01-.1-5.67-1.47-9.21-1.2-1.55,1.07-2.84-.87-1.13-1.72,1.5.58,3.34-.07,3.46-.72.75-4.13-4.1-2.89-8.42-4.02-3.37-.88-6.32-1.94-10.19-1.7-.7-1.36.59-1.82,1.38-1.01,1.01.08,2.01-.08,2.43-.33.44-.27.48-1.05-.06-1.91,1.91.04,3.21-.49,4.88-1.14,2.15-.83,4.54.51,6.37.45,2.2-.07,3.69-.36,5.74-.15,1.81.18,7.96-1.66,8.06-1.94.3-.79-.36-1.1-1.03-1.83l-3.93-4.26c6.51-1.47,11.3.31,12.86.34l11.33.26c.4-.17.53-.52.53-.68l-7.89-.5c-1.71-.11-3.16-1.17-5.13-.81-1.93.35-3.5-.2-5.21-.65l-4.84-1.26-6.94-.04c-.96,0-1.77-1.09-1.65-1.59.2-.86,1.26-1.56,2.85-1.58-.7-1.3-2.03-1.03-3.09-.77-2.63-2.56-5.5-3.6-9.47-3.27-1.86.64-2.15-1.99-.17-1.8,3.9-2.89,10.2,1.58,15.12-.52,2.02-.86,3.02-4.4,2.43-6.31s-2.16-2.75-3.45-3.62c-3.21-2.17-4.49,2.17-6.93,1.27-.86-.32-1.38-1.01-1.49-2.3-.07-.9,3.66-4.65,7.73-4.77,3.19-.1,4.9-2.62,4.39-5.83-.23-1.5.3-3.18-.84-4.58-.31-.38-.85-.66-.98-.9-.68-1.22,2.28-1.2,5.07-2.97.51-.14,2.18.92,2.7-.27.34-1.34,2.08-2.59,3.15-1.57.42.4,1.71,2.04,2.39,1.5,2.36-1.92,4.79-1.22,6.79-1.83,2.22-.68,3.91-1.75,6.36.08.88.66,2.22-.02,3.23-.06l8.96-.39c.94-.04,1.7-.92,2.13-1.74-2.45-.04-2.81-1.35-4.11-2.43-2.06-1.71-7.67-1.97-14.27-3.38-5.16-1.1-12.64.64-17.28-2.14-5.57-3.34-10.71-2.24-16.72-4.29-.92.34-1.98-.17-1.4-1.47,8.21-1.48,15.47,1.37,21.65-1.08l-4.33-1.25-7.66-1.5c-.89-.18-.92-1.79-.11-2.59l-6.78-2.4c-2.25-.8-3.99-1.4-5.11-3.37l6.95-.09c1.32-.02,2.35.29,3.11-1.17-5.8.14-14.02-3.56-13.99-3.52-.2-.28.7-1.24,1.05-1.12,3.2,1.1,5.1-2.9,7.98-.15,1.37-.66.62-1.81-.37-2.01C6.49,12.92-.48,12.03.03,9.2c.28-1.56,3.36-1.32,4.69-.64,2.6,1.34,4.91,1.21,7.55,1.76l8.12,1.67c2.49.51,4.66.29,7.12.75l5.07.95,13.74,1.53,3.89.27c3.48.24,5.84-.15,8.39-2.44l8.46-.49,3.6-1.28c5.25,2.19,11.78-.76,21.77-.3,2.58.12,4.79-.56,7.2-.56l12.62.04c1.63,0,2.75.35,4.37-.13,2.91-.87,5.93.49,8.81.52l25.9.24c.66,0,1.59.61,2.13.9,2.06-1.39,6.48-.73,11.17-.39l8.71.63c3.1.23,5.44.59,8.4.51,1.38-.04,3.31-.47,4.74-.37,4.1.28,7.42.56,12.36.18l8.35-.65c2.99-.23,4.58-.93,7.53-.3,5.1,1.08,8.57-.98,12.77-.85,2.2.07,4.73.79,6.58.65,3.2-.24,6.07-.96,9.12.16l3.21-.56,30.64-.46c2.74-.04,5.05-.46,7.65.12,1.66.37,4.57-1.03,6.73-.83,7.86.74,15.22.07,23.03.01,1.95-.01,3.27-.57,5.16-.68l9.63-.51c3.84-.2,7.32-.5,11.21-.55l22.01-.28c3.03-.04,5.74-.92,9.03-.96l17.59-.2,5.56.02c8.52.03,18.8.94,24.26-.3,1.55-.35,2.34.22,3.87.25l11.73.22,4.68.9c2.07.4,3.31-.32,5.3-.18l5,.34,31.97.64c4.89.1,10.7-.3,13.35-.17l6.07.31c1.36.07,3.18-.19,4.6-.08l7,.5c3.02.22,5.3-1.28,7.82-1.32,1.81-.03,4.38,2.41,7.16,1.02s6.17-.83,8.84.28c.92-.45,3-2.01,3.83-1.48,2.15,1.38,4.17,1.96,6.57.52,1.3-.78,2.96.59,3.88.6l5.63.04c.34,0,1.19-.98,1.32-1.28.22-.5,1.55.31,2.03.45l17.83.05c.59,0,2.44-1.15,2.96-.87,1.84,1.38,4.2.38,6.31.19l9.2-.82,10.46-.82,7.18-.66,12.61-1.43c1.4-.16,2.65-1.01,4.37-.72,3.53.59,6.7-.49,10.1-.6l10.9-.34,6.93-.24,4.34-.21,5.74-.43,6.93-.93,32.05-.09,26,.22c2.9.02,5.26-.3,8.14.41l3.75-.44c1.31-.15,2.78.81,3.97.44,3.66-1.12,4.85.56,7.33.23.98.07.91,1.21-.04,1.17l-10.75.47h-5.62s-11.75.26-11.75.26l-6.79-.11c-2.35-.04-4.09.39-6.6-.32-3.68-1.03-7.72.49-11.56.54l-20.09.26-5.96.91-17.66.37c-2.58.05-4.47.95-7.63.57.71,1.58,1.64,1.67,3.44,2.49-2.69.35-4.97.82-8.48.41.96-1.4,2.31-1.33,3.76-1.47,1.02-1.17-.34-1.85-1-1.05-1.5.8-2.83.67-4.42.65l-12.14-.16-4.78,1.31-8.21-.18c-.94-.02-1.86.87-2.06,2.1,1.51.1,2.34-.36,3.46-.95,1.21-.64,2.34.42,1.72,1.89-.95,2.27-3.56-.83-4.47-.18-.47.34-1.18.99-1.54,2.1l10.8-.35c4.01-.13,9.32.06,9.32.06,3.2,1.94,5.71.81,9.08.74l10.77-.22,6.02-1.04,11.14-.68,20.82-.79c4.36-.17,8.76-2.05,12.87-.45l4.23,1.65,9.9.2,16.05-.06c2.68-.01,5.14.89,8.16-.24,1.06.15.83,1.4-.14,1.11-4.76,1.93-9.34.84-14.15.94l-21.77.46-5.32.72c-.99-.67-2.16.37-1.31,1.15,5.34-.77,9.25.75,12.83.47l4.79-.37,11.88-.06,6.63,1.41c1.54.33,2.32,2,4.85.91.51-1.23,2.11-.19,1.07.49-4.08,2.47-9.05,3.16-13.81,3.18-1.11-1.32-2.62.32-1.28,1.14,3.82.86,7.73-.44,10.73.19-3.92,1.83-7.29,1.47-11.27,1.54-.69-.35-1.38.46-.6,1.02,1.75-.44,1.86,1.58.09,1.19l-6,1.21c-1.86.37-3.15,2.49-5.45,2.22s-3.58,1.47-5.33,1.68l-9.19,1.07-8.53,1.1c4.48.95,9.09.4,14.36.28,1.87-.35,2.18,1.81-.39,1.69,2.14,1.34,4.61.42,7.25-.25,4.44-1.13,9.01.39,11.46,3.97l-1.6,4.09c.93,1.62-1.25,2.63-1.78.87-.17-.64-.86-1.31-1.28-1.37-1.58.54-1.55,2.62-2.79,3.54l-3.22,2.39c-1.27.94.62,2.77,2.02,2.52.83-.15,1.61.07,1.95.79.3.63.53,1.05.57,1.42.12,1.24-5.46,2.67-4.54,4.02.73,1.07,4.53-.13,2.55,1.94-.61,1.29-1.67,2.33-2.87,2.45-.21.19-.36.43-.45.68-.29.81-.78,1.26-2.34,1.44-.93.11-.92,2.11.25,2.77l-5.05.52c.1.35.73.89.72,1.17s-.6.44-.29,1.42c1.24-.4,2.02.84.83,1.65-8.25-2.44-13.65,1.59-14.8,1.78l-7.58,1.24,5.92.64c2.28.25,3.7.75,6.56.89-2.67,2.63-6.12-.14-6.43,3.02,3.73-.57,8.34.96,8.7,2.91-3.66-.87-5.03,2.64-9.8,3.62l-5.12,1.06-10.83.89,15.11.56,14.96-.28c1.75-.03,3.12-1.09,5.1.08s4.36,2.03,7.12,1.11c.98-.37,1.03,1.46-.27.77-2.78,4.24-10.66-.16-16.22,5.69.61.47,2.02,2.31,3.27,2.46,3.29.06,5.58.2,8.44,1.5,1.42.64,4.89-.12,5.9.93,2.87,3,7.8,1.05,7.69,3.3-.1,1.96-1.86,1.92-2.87,1.99l-5.09.37c.24.83.6,1.82.48,2.3-.15.62-1.2,1.07-2.13,1.03-2.64-.1-2.15,2.86-2.85,3.67-.37.43-1.34.85-2.7.58-1.54-.22-1.57,1.67-.03,1.44,2.51-.48,4.44.24,6.03,1.59-2.13,1.62-3.74,4.57-6.19,4.82l-6.34.65c-1.6.16-1.95,2.44-2.51,3.73-6.94,4.2-11.76,1.63-17.89,2.89-3.73.77-7.73-.17-11.07,1.94,6.47.1,11.52,3.82,18.72,1.82,4.19-1.17,9.83-.6,12.46,1.59-4.01-.42-7.18.4-11.06.7l-5.85.46c-1.61,3.51-5.23,2.97-6.08,4.4-.35.59-.35,2.69.26,3.09,2.05.08,3.79.83,5.95.99l7.62.58,7.66,2.84c.04.99.03,1.94-.03,2.04-1.37,0-1.68.75-1.77,1.84-3.68-1.7-8.18-1.98-12.86-2.68,2.15,3.32,5.62,2.58,6.19,4.7-2.99,2.92-7.7-.41-12.16,1.49l7.12,1.64c.43.1,1.28.24,1.57.64.27.37-.14,1.34-.13,1.74,1.17.53,1.76.98,1.8,2.26-1.76.55-2.17,1.63-1.54,3.1-1.24-.07-2.26-.55-3.93.45l5.36,1.76c1.04-.14,2.21.14,1.73,1.89-2.06-1.02-3.76-.34-5.88-.34h-9.89c-2.29,0-4.61-1.58-7.36-.17l8.81,1.87c2.39.51,3.6,2.03,6.76,1.65-1.47,2.51-3.32,1.69-5.72,1.44l-7.29-.76c-2-.21-3.19-.75-5.34-.77l-23.83-.21c-1.01-.18-1.93-2.1-4.18-2.04l-11.03.32c-2.06.06-5.75-.79-7.23.48-2.7,2.31-4.19.98-7.07.89l-20.6-.66-13.71-.24c-3.81-.07-6.55-.07-10.34.24l-9.92.81-4.22.05-8.8.43-16.66.48-17.35.46-9.04.15-3.92.93-10.89.26c-2,.05-3.25.15-5.2.18l-4.93.09-28.9.65c-3.2.07-6.18,1.65-9.43.29-.94-.39-3.45.12-4.52.39-3.27.82-5.4-.39-8.17-.76-4-.54-7.87-.76-11.18-2.9l-3.93.03-15.84-.44-5.05-.8-9.03-.05-38.8-.45c-6.24-.07-11.86-.89-18.24.28l-8.93.15-9.97.17c-.96.02-2.41,1.37-3.76.32-.7-.55-1.53-2.85-2.38-3.17l-8.65-.59c-2.63-.18-3.83.07-6.34.14l-10.99.31-3.82-.72c-3.48.64-6.52.62-10.12.75l-5.06.18c-1.81.07-3.82.64-5.9.63l-15.09-.08c-3.31-.02-9.87,3.18-14.49,1.55-2.42-.85-4.19-.54-6.74.47l-6.67-.35c-5.33,1.65-10.24,2.89-15.65,1.92-3.51-.63-9.45,2.26-13.5,2.16l-12.63-.29c-1-.02-2.16-1.75-4.33-1.66l-11.67.53c-3.7.17-9.97,2.3-14.26,1.66-2.2-.33-3.99.83-6.04.93l-5.94.3c-.53.03-2.76,1.66-4.96-.71-.42-.45.01-2.05,1.25-2.19,7.74-.88,11.87,2,14.8-.24.43-.33.81-1.99,1.96-1.99h8s5.99-1.83,5.99-1.83c3.35.54,7.04,1.57,10.28.09,1.49-.68,2.68-1.77,4.69-1.26.84-1.6-.64-2.35-1.55-1.5l-11.4.75-7.91,1.11c-2.52.35-4.54,1.41-6.56-1.42-2.12,4.84-6.37-.87-9.69,1.92-1.54,1.29-3.59,2.33-5.83,1.93s-8.67,1.77-17.06,1.82l-26.88.18c-1.75.01-4.28-2.16-5.99-1.77-2.12.49-3.18.7-5.24-.07-2.2-1.74,1.73-2.38,8.4-1.43,1.19.17,3.09-.77,4.64-.65,4.9.4,9.26-.76,14.05-.81l13.1-.13c.83,0,1.77-.95,1.89-1.92l-18.98.08-10.42.14c-.93-.55-.22-2.06,1.17-1.38.71-2.47,2.01-2.77,4.69-3.46-9.34-2.49-18.14,4.66-26.99-3-1.38-.69-4.51-1.36-6.49-1.4l-4.91-.12c-.26-3.34-1.68-5.01.95-7.93l4.9-.38,3.1.02,8.73-2.01c2.06-.47,3.57-2.28,6.64-1.34,1.81.32,1.85-1.87-.05-1.32-1.46.25-2.17.19-3.34,0,.38-3.82-5.16-7.88-8.92-7.05s-10.83-4.77-14.14-5.51c-3.89-.87-7.27-.53-11.27-2.17-1.45-.6-4.94-.88-6.48-.8-3.01.16-3.19-1.97-4.59-2.8-2.41-1.42-5.77-.79-7.37-4.31-1.33.44-1.53-1.29-.5-1.29,11.1,2.24,21.43-.11,29.49,1.69,4.89,1.09,8.66-1.27,10.94.15,1.41.87,5.75.75,8.35.09l.49-.54ZM610.6,10.93c-.95-.07-1.25.79-.25,1.01.81.25,1.34-.72.25-1.01ZM60.25,14.59c0-.66-.54-1.2-1.2-1.2s-1.2.54-1.2,1.2.54,1.2,1.2,1.2,1.2-.54,1.2-1.2ZM66.44,14v1h14.5v-1h-14.5ZM95.44,17h-23.5v1h23.5v-1ZM173.94,17l-.5.5.5.5.5-.5-.5-.5ZM188.94,17l-.5.5.5.5.5-.5-.5-.5ZM660.6,43.93c-.95-.07-1.25.79-.25,1.01.81.25,1.34-.72.25-1.01ZM665.41,43.95c-1.87-.84-2.47,1.55-.21,1.2,1.1.29,1.48-1.07.21-1.2ZM671.46,44.46c-1.15-.64-1.73-.12-2.04.08,1.15.64,1.73.12,2.04-.08ZM711.46,48.33l-16.85-.59-6.21-1.01-6.99,1.04-11.83-.03-5.13-.84-17.07.6,9.02,1.26,24.01.36c.58,0,1.77,1.09,2.7.54,3.41-1.99,6.68,1.48,8.89.09s4.7.17,6.12-.14c6.18-1.32,9.53.74,13.34-1.31ZM674.38,57.7l-6.7-.69c-3.19-2.16-6.19-.59-9.52-.35-2.25.16-6.37-1.82-11.09,1.45,6.92-.35,10.75,3.42,18.99,1.51l8.32-1.92ZM715.39,61.6c.66.7,1.34,0,.64-.72l-.64.72ZM676.6,61.93c-.95-.07-1.25.79-.25,1.01.81.25,1.34-.72.25-1.01ZM66.95,121.02l-.5.46c1.56.68,3.51.97,5.11-.05-1.93-.82-3.3-.45-4.61-.42ZM79.43,143.48c-.71-.45-1.27-.45-1.97,0,.63.48,1.35.48,1.97,0ZM663.4,162.69c1.05.85,1.79.21,2.04-.19.34-.53.01-1.35-.64-1.5l-1.41,1.69ZM680.43,162.5c-1.55-.69-3.51-.96-5.11.05,1.93.82,3.3.45,4.61.42l.5-.47ZM680.94,163l-.5.5c1.34.83,5.03.75,8.03.13-.02-.1-.17-.42-.53-.63h-7ZM663.41,165.95c-1.87-.84-2.47,1.55-.21,1.2,1.1.29,1.48-1.07.21-1.2ZM667.95,165.99c-1.34-.78-2.04,1.36-.11,1.05l.11-1.05ZM668.95,167.02l-.23.68c1.51.62,2.96.48,4-.24-1.77-.83-2.8-.48-3.77-.44Z"/>
    <rect x="698.44" y="3.96" width="12" height="2.04"/>
    <path d="M713.35,4.58c3.05-1.07,7.6-.8,8.1-.09.33.48.06,1.24-.49,1.48-.9.4-1.22-.5-1.73-.57l-5.87-.83Z"/>
    <rect x="624.62" y="8.02" width="3.69" height="2.46" transform="translate(38.62 226) rotate(-21.09)"/>
    <path d="M635.32,8.52c-.67,1.57-3.6,2.55-5.24.46.87-1.14,2.85-1.63,5.24-.46Z"/>
    <path d="M642.42,8.82c-1.43.84-2.64-.38-1.8-1.8.79.18,1.62,1.01,1.8,1.8Z"/>
    <path d="M637.86,8.91c-1.32.51-1.68-.86-.65-1.38,1.09-1.15,2.2.88.65,1.38Z"/>
    <path d="M675.52,173.25c-.12.27-.88,1.1-2.05.24-.12.14.4-.59,2.05-.24Z"/>
    <rect x="730.59" y="4.14" width=".71" height=".71" transform="translate(210.91 518.17) rotate(-45)"/>
    <rect x="722.59" y="46.14" width=".71" height=".71" transform="translate(178.87 524.82) rotate(-45)"/>
  </g>
</svg>